<?xml version="1.0" encoding="UTF-8"?>
<svg id="Layer_7" data-name="Layer 7" xmlns="http://www.w3.org/2000/svg" version="1.1" viewBox="0 0 1660 940">
  <defs>
    <style>
      .cls-1, .cls-2, .cls-3, .cls-4, .cls-5, .cls-6, .cls-7, .cls-8, .cls-9 {
        stroke-linecap: round;
        stroke-linejoin: round;
      }

      .cls-1, .cls-2, .cls-4, .cls-5, .cls-6, .cls-7, .cls-8, .cls-9 {
        stroke: #080909;
      }

      .cls-1, .cls-3, .cls-4, .cls-5, .cls-8 {
        fill: none;
      }

      .cls-1, .cls-9 {
        stroke-width: 2.5px;
      }

      .cls-2, .cls-7, .cls-8 {
        stroke-width: 2px;
      }

      .cls-2, .cls-9 {
        fill: #fff;
      }

      .cls-3 {
        stroke: #fff;
        stroke-width: 8px;
      }

      .cls-5 {
        stroke-width: 1.5px;
      }

      .cls-6 {
        fill: #080909;
      }

      .cls-10 {
        fill: #000;
        stroke-width: 0px;
      }

      .cls-7 {
        fill: #ddd;
      }
    </style>
  </defs>
  <g>
    <path class="cls-7" d="M1050.67,498.49c18.56-2.97,38.07-11.67,55.91-23.75"/>
    <path class="cls-7" d="M764.34,435.7c27.31-58.22,49.8-105.94,73.69-131.24,3.33-3.53,7.41-6.26,11.94-8,14.81-5.69,37.55-12.89,59.26-22.11,1.31-.56,2.82-.49,4.06.22,31.33,17.96,60.17,16.51,87.95,6.92,1.26-.44,2.65-.32,3.81.35l54.51,31.39c3.63,2.09,6.82,4.86,9.38,8.16,19.64,25.26,40.29,87.3,52.81,139.75.41,1.71-.18,3.52-1.54,4.64-21,17.25-46.12,18.35-68.78,32.6-.97.61-2.25.02-2.42-1.11l-3.57-17.94c1.61,72.72-14.64,103.03-14.03,183.96-.07,1.11-1.05,1.94-2.16,1.84-81.03-7.57-156.71-9.7-205.94-16.35-1.07-.14-1.95-1.15-1.69-2.2-1.43-55.68,17.26-133.95,17.15-187.81l-8.14,25.44c-.27.85-1.37,1.06-1.93.37-18.81-23-47.5-30.19-63.16-43.36-1.6-1.35-2.08-3.62-1.19-5.52Z"/>
    <path class="cls-5" d="M1079.84,340.41c-11.73,17-21.11,35.69-29.59,55.83"/>
    <path class="cls-5" d="M818.43,330.29c9.59,22.79,19.37,45.08,25.23,77.53"/>
    <path class="cls-8" d="M1051.08,376.15c-.96,38.39-5.68,65.36-5.65,103.19"/>
    <path class="cls-5" d="M838.76,458.76c3.62-36.19,6.95-73.52,9.86-112.5"/>
    <path class="cls-8" d="M911.49,274.47c6.9,48.43,68.72,60.72,91.42,7.09"/>
    <path class="cls-5" d="M902.79,278.1c15.55,56,80.61,67.64,108.26,8.39"/>
    <path class="cls-8" d="M829.04,485.32c-36.2-15.27-38.41-26.2-62.39-43.19"/>
    <path class="cls-4" d="M836.88,493.68c-4.69,53.39-3.75,93.48,2.82,120.27"/>
    <path class="cls-4" d="M892.12,645.18c41,3.39,92.03,6.47,139.68,12.54"/>
    <path class="cls-4" d="M765.59,433.03c12.55,12.05,37.43,19.71,51.71,29.06"/>
    <path class="cls-4" d="M1047.44,492.89c22.6-13.98,37.42-10.23,60.44-25.46"/>
    <path class="cls-4" d="M917.25,282.21c25.67,13.49,52.34,17.66,80.54,7.33"/>
    <path class="cls-6" d="M945.54,293.81c.22,2.2-.25,4.7-1.14,7.4,7.3,1.31,14.61,2,21.94,2.06,1.1-2.19,1.62-4.7.9-7.55-7.47,1.23-14.61-.56-21.7-1.9Z"/>
  </g>
  <path class="cls-3" d="M942.5,441.99c-23.17-58.08-57.3-125.81-84.08-151.5-3.5-3.36-7.63-6-12.14-7.79l-67.83-26.87c-1.44-.57-3.06-.48-4.43.24-30.28,15.66-63.12,22.17-102.09,6.83-1.54-.61-3.28-.44-4.69.42-23.37,14.23-48.25,26.31-64.29,35.33-4.91,2.76-9.13,6.58-12.36,11.19-23.16,33.05-40.95,91.59-62.51,162.99-.7,2.33.23,4.85,2.3,6.13.49.3,1,.6,1.51.89l-.08-.04s.06.03.1.05c1.52.88,3.11,1.71,4.76,2.51,26.12,14.27,32.36,25.72,74,36.52l-69.94-34.67c20.24,8.75,47.93,14.25,69.42,33.87.76.69,1.99.26,2.16-.75l5.06-30.56c9.18,61.79.87,154.75,11.88,218.41-.12,1.25,1.05,2.25,2.3,2.24,57.62-.63,144.83-10.91,239.09-15.83,1.29-.07,2.27-1.18,2.17-2.47-14.29-92.76-.75-130.28-14.81-213.46l7.11,19.99c.29.97,1.27,1.46,2.16,1.26h0c20.16-6.32,40.45-19.17,58.33-35.52l-.1.06c5.65-3.93,11.05-8.43,16.03-13.91,1.37-1.51,1.75-3.68.99-5.58ZM868.46,496.2c13.02-10.99,27.53-17.61,41.47-25.25l-41.47,25.25Z"/>
  <g>
    <path class="cls-2" d="M867.25,496.94c20.16-6.33,40.45-19.18,58.33-35.52"/>
    <path class="cls-9" d="M528.07,472.83c21.57-71.4,39.36-129.94,62.51-162.99,3.23-4.61,7.45-8.43,12.36-11.19,16.04-9.02,40.92-21.1,64.29-35.33,1.41-.86,3.15-1.03,4.69-.42,38.98,15.34,71.82,8.83,102.09-6.83,1.38-.71,2.99-.81,4.43-.24l67.83,26.87c4.51,1.79,8.64,4.43,12.14,7.79,26.78,25.69,60.91,93.42,84.08,151.5.76,1.9.38,4.07-.99,5.58-21.21,23.32-49.85,28.81-73.46,48.97-1.01.86-2.58.4-2.96-.87l-7.11-19.99c14.06,83.19.51,120.7,14.81,213.46.1,1.29-.88,2.4-2.17,2.47-94.26,4.93-181.47,15.2-239.09,15.83-1.25.01-2.43-.99-2.3-2.24-11-63.66-2.7-156.62-11.88-218.41l-5.06,30.56c-.17,1.02-1.4,1.45-2.16.75-25.45-23.24-59.59-26.67-79.77-39.15-2.07-1.28-3-3.8-2.3-6.13Z"/>
    <path class="cls-8" d="M881.67,320.67c-13.48,27.31-23.35,57.22-30.06,89.39"/>
    <path class="cls-8" d="M572.44,342.78c14.83,24.55,29.8,48.48,41.98,84.74"/>
    <path class="cls-1" d="M846.49,353.68c3.69,44.73,6.88,77.15,11.49,122"/>
    <path class="cls-1" d="M617.35,486.79c-1.71-37.4-3.83-75.79-6.53-115.56"/>
    <path class="cls-1" d="M669.84,263.08c16.06,54.42,89.06,58.13,106.1-7.22"/>
    <path class="cls-8" d="M662.26,266.89c26.65,63.23,100.98,65.99,121.84-8.32"/>
    <path class="cls-8" d="M610.66,518.9c-44.11-11.44-48.49-23.62-78.86-39.09"/>
    <path class="cls-4" d="M621.06,527.18c3.58,62.06,11.4,107.91,23.44,137.55"/>
    <path class="cls-4" d="M627.86,695.78c48.27,1.1,140.54-9.69,225.02-11.25"/>
    <path class="cls-4" d="M529.05,469.56c16.42,11.72,46.27,16.33,64.23,24.66"/>
    <path class="cls-4" d="M862.55,490.89c24.56-20.66,42.66-17.84,68.05-42.13"/>
    <path class="cls-4" d="M678.76,273.44c29.64,10.76,58.97,11.34,87.84-3.93"/>
    <path class="cls-6" d="M712.99,281.35c.57,2.35.42,5.15-.14,8.21,8.13.34,16.18.01,24.14-1.01.87-2.54,1.07-5.35-.14-8.34-7.93,2.45-15.96,1.56-23.86,1.14Z"/>
  </g>
  <g>
    <path class="cls-10" d="M829.91,381.4c-1.27,1.4-2.19,2.78-3.45,3.69-1.11.81-2.55,1.41-3.91,1.57-4.95.58-9.92.97-14.89,1.36-1.54.12-2.71.65-3.66,1.93-2.26,3.03-4.68,5.95-6.97,8.96-1.45,1.9-3.24,2.98-5.68,3.1-2.48.12-4.96.42-7.79.67.78-1.01,1.37-1.81,1.99-2.58,3.23-3.98,6.5-7.94,9.7-11.94,2.14-2.68,4.88-4.22,8.27-4.54,8.49-.79,16.98-1.52,25.46-2.28.19-.02.38.02.91.05Z"/>
    <path class="cls-10" d="M797.96,382.77c-3.48.44-5.18,3.18-7.22,5.45-1.5,1.67-3.02,3.32-4.37,5.1-1.64,2.17-3.99,2.08-6.24,2.08-1.13,0-.85-.97-.39-1.66,1.77-2.71,3.55-5.41,5.31-8.13.5-.77,1.4-1.67.49-2.5-.58-.54-1.64-.68-2.51-.75-2.52-.19-4.48.85-6.07,2.83-1.21,1.51-2.55,2.95-4.03,4.2-.89.75-2.1,1.29-3.25,1.53-1.69.36-3.46.42-5.2.48-.5.02-1.32-.27-1.46-.62-.18-.46,0-1.3.34-1.68,2.72-3.04,5.4-6.14,8.34-8.96,1.06-1.02,2.73-1.67,4.22-1.91,3.24-.51,6.54-.68,9.82-.92.83-.06,1.77-.07,2.49.27,3.28,1.54,6.49,3.2,9.73,4.82,0,.12,0,.24.01.37Z"/>
    <path class="cls-10" d="M821.77,389.64c-1.41,2.08-3.02,3.46-5.25,3.73-3.9.47-7.82.75-11.74,1.1-.13.01-.26-.08-.4-.13.75-2.35,1.94-3.33,4.27-3.54,3.82-.34,7.63-.68,11.45-1.02l1.67-.15Z"/>
  </g>
  <g>
    <path class="cls-10" d="M1031.88,395.04c-1.19.92-2.11,1.87-3.22,2.42-.98.48-2.2.75-3.29.69-3.96-.23-7.92-.62-11.87-1-1.22-.12-2.21.13-3.14,1.01-2.2,2.06-4.5,4.02-6.72,6.06-1.4,1.29-2.96,1.89-4.89,1.64-1.97-.25-3.95-.36-6.21-.56.75-.68,1.32-1.23,1.92-1.75,3.09-2.68,6.21-5.32,9.28-8.02,2.05-1.8,4.42-2.63,7.12-2.41,6.77.56,13.53,1.17,20.3,1.76.15.01.29.07.71.17Z"/>
    <path class="cls-10" d="M1006.62,391.67c-2.79-.14-4.5,1.77-6.43,3.27-1.41,1.1-2.83,2.18-4.14,3.4-1.59,1.47-3.42,1.08-5.19.76-.88-.16-.53-.88-.08-1.36,1.76-1.88,3.54-3.75,5.3-5.64.5-.53,1.33-1.12.74-1.9-.38-.5-1.19-.77-1.87-.94-1.95-.5-3.63.04-5.16,1.37-1.16,1.01-2.41,1.96-3.74,2.73-.8.47-1.83.72-2.76.75-1.38.04-2.77-.16-4.15-.35-.4-.06-1-.39-1.06-.69-.07-.39.18-1.02.5-1.27,2.56-2.01,5.09-4.06,7.79-5.87.97-.65,2.38-.93,3.57-.91,2.61.05,5.23.37,7.83.64.66.07,1.4.19,1.92.56,2.36,1.66,4.65,3.42,6.96,5.14-.01.1-.03.19-.04.29Z"/>
    <path class="cls-10" d="M1024.34,400.37c-1.4,1.43-2.86,2.29-4.64,2.19-3.13-.18-6.24-.5-9.36-.77-.1,0-.2-.1-.29-.16.92-1.74,1.99-2.34,3.84-2.18,3.04.26,6.08.53,9.13.79l1.33.12Z"/>
  </g>
</svg>